<mxfile host="Electron" agent="Mozilla/5.0 (Windows NT 10.0; Win64; x64) AppleWebKit/537.36 (KHTML, like Gecko) draw.io/26.0.9 Chrome/128.0.6613.186 Electron/32.2.5 Safari/537.36" version="26.0.9">
  <diagram id="5_3ju57iJFQ48RiFz643" name="Страница — 1">
    <mxGraphModel dx="1173" dy="709" grid="1" gridSize="10" guides="1" tooltips="1" connect="1" arrows="1" fold="1" page="1" pageScale="1" pageWidth="827" pageHeight="1169" math="0" shadow="0">
      <root>
        <mxCell id="0" />
        <mxCell id="1" parent="0" />
        <mxCell id="cGlMTdrQP3n2juW7j6dr-48" style="edgeStyle=orthogonalEdgeStyle;rounded=0;orthogonalLoop=1;jettySize=auto;html=1;entryX=1;entryY=0.5;entryDx=0;entryDy=0;strokeWidth=3;endArrow=none;endFill=0;" parent="1" source="897-IGtDmZMaKjjsDtu9-1" edge="1" target="v5-8C63rMbfKwI-Q11EX-3">
          <mxGeometry relative="1" as="geometry">
            <mxPoint x="1110" y="350" as="targetPoint" />
            <Array as="points">
              <mxPoint x="1250" y="611" />
              <mxPoint x="1250" y="1035" />
            </Array>
            <mxPoint x="830" y="610" as="sourcePoint" />
          </mxGeometry>
        </mxCell>
        <mxCell id="cGlMTdrQP3n2juW7j6dr-6" value="&lt;font style=&quot;font-size: 14px;&quot;&gt;Администратор&lt;/font&gt;" style="shape=umlActor;verticalLabelPosition=bottom;verticalAlign=top;html=1;" parent="1" vertex="1">
          <mxGeometry x="1740" y="1010" width="70" height="140" as="geometry" />
        </mxCell>
        <mxCell id="cGlMTdrQP3n2juW7j6dr-11" value="«include»" style="html=1;verticalAlign=bottom;endArrow=open;dashed=1;endSize=8;curved=0;rounded=0;exitX=0.441;exitY=1;exitDx=0;exitDy=0;entryX=0.664;entryY=-0.029;entryDx=0;entryDy=0;exitPerimeter=0;entryPerimeter=0;" parent="1" edge="1" target="v5-8C63rMbfKwI-Q11EX-22" source="v5-8C63rMbfKwI-Q11EX-10">
          <mxGeometry relative="1" as="geometry">
            <mxPoint x="1125" y="990" as="sourcePoint" />
            <mxPoint x="1195.0000000000123" y="915" as="targetPoint" />
          </mxGeometry>
        </mxCell>
        <mxCell id="cGlMTdrQP3n2juW7j6dr-14" value="&lt;font style=&quot;font-size: 13px;&quot;&gt;Обновление учётной записи пользователя&lt;/font&gt;" style="ellipse;whiteSpace=wrap;html=1;" parent="1" vertex="1">
          <mxGeometry x="1090" y="1390" width="140" height="70" as="geometry" />
        </mxCell>
        <mxCell id="cGlMTdrQP3n2juW7j6dr-15" value="&lt;span style=&quot;font-size: 14px;&quot;&gt;Проверка достоверности информации&lt;/span&gt;" style="ellipse;whiteSpace=wrap;html=1;" parent="1" vertex="1">
          <mxGeometry x="1255" y="1390" width="140" height="70" as="geometry" />
        </mxCell>
        <mxCell id="cGlMTdrQP3n2juW7j6dr-17" value="&lt;font style=&quot;font-size: 13px;&quot;&gt;Вывести ошибку на неверный пароль&lt;/font&gt;" style="ellipse;whiteSpace=wrap;html=1;" parent="1" vertex="1">
          <mxGeometry x="1370" y="1340" width="140" height="70" as="geometry" />
        </mxCell>
        <mxCell id="cGlMTdrQP3n2juW7j6dr-18" value="«include»" style="html=1;verticalAlign=bottom;endArrow=open;dashed=1;endSize=8;curved=0;rounded=0;exitX=0.467;exitY=1.001;exitDx=0;exitDy=0;entryX=0.5;entryY=0;entryDx=0;entryDy=0;exitPerimeter=0;" parent="1" source="MbFxs7zaVnWWoNZUcA2m-1" target="cGlMTdrQP3n2juW7j6dr-14" edge="1">
          <mxGeometry x="0.0027" relative="1" as="geometry">
            <mxPoint x="1160" y="1308" as="sourcePoint" />
            <mxPoint x="1354" y="1116" as="targetPoint" />
            <mxPoint as="offset" />
          </mxGeometry>
        </mxCell>
        <mxCell id="cGlMTdrQP3n2juW7j6dr-20" value="«include»" style="html=1;verticalAlign=bottom;endArrow=open;dashed=1;endSize=8;curved=0;rounded=0;exitX=0.742;exitY=0.971;exitDx=0;exitDy=0;entryX=0;entryY=0;entryDx=0;entryDy=0;exitPerimeter=0;" parent="1" source="MbFxs7zaVnWWoNZUcA2m-1" target="cGlMTdrQP3n2juW7j6dr-15" edge="1">
          <mxGeometry relative="1" as="geometry">
            <mxPoint x="1209.8918579666247" y="1297.5499618565932" as="sourcePoint" />
            <mxPoint x="1381" y="1200" as="targetPoint" />
          </mxGeometry>
        </mxCell>
        <mxCell id="cGlMTdrQP3n2juW7j6dr-21" value="«extend»" style="html=1;verticalAlign=bottom;endArrow=open;dashed=1;endSize=8;curved=0;rounded=0;exitX=0;exitY=0;exitDx=0;exitDy=0;" parent="1" edge="1" target="MbFxs7zaVnWWoNZUcA2m-1" source="cGlMTdrQP3n2juW7j6dr-17">
          <mxGeometry relative="1" as="geometry">
            <mxPoint x="1444.3612932590866" y="1217.9436865171783" as="sourcePoint" />
            <mxPoint x="1345.9952015839342" y="1090.0025025525513" as="targetPoint" />
          </mxGeometry>
        </mxCell>
        <mxCell id="cGlMTdrQP3n2juW7j6dr-34" value="&lt;span style=&quot;color: rgb(51, 51, 51); text-align: start; background-color: rgb(255, 255, 255);&quot;&gt;&lt;font face=&quot;Helvetica&quot; style=&quot;font-size: 14px;&quot;&gt;Управление пользователями и данными&lt;/font&gt;&lt;/span&gt;" style="ellipse;whiteSpace=wrap;html=1;" parent="1" vertex="1">
          <mxGeometry x="1410" y="990" width="140" height="70" as="geometry" />
        </mxCell>
        <mxCell id="cGlMTdrQP3n2juW7j6dr-82" style="edgeStyle=orthogonalEdgeStyle;rounded=0;orthogonalLoop=1;jettySize=auto;html=1;endArrow=none;endFill=0;strokeWidth=3;entryX=0;entryY=0.5;entryDx=0;entryDy=0;" parent="1" target="MbFxs7zaVnWWoNZUcA2m-1" edge="1">
          <mxGeometry relative="1" as="geometry">
            <mxPoint x="1090" y="1273" as="targetPoint" />
            <mxPoint x="830" y="860" as="sourcePoint" />
          </mxGeometry>
        </mxCell>
        <mxCell id="cGlMTdrQP3n2juW7j6dr-81" value="&lt;font style=&quot;font-size: 14px;&quot;&gt;Студент&lt;/font&gt;" style="shape=umlActor;verticalLabelPosition=bottom;verticalAlign=top;html=1;" parent="1" vertex="1">
          <mxGeometry x="750" y="725" width="70" height="140" as="geometry" />
        </mxCell>
        <mxCell id="897-IGtDmZMaKjjsDtu9-1" value="&lt;span style=&quot;font-size: 14px;&quot;&gt;Преподаватель&lt;/span&gt;" style="shape=umlActor;verticalLabelPosition=bottom;verticalAlign=top;html=1;" parent="1" vertex="1">
          <mxGeometry x="1510" y="550" width="70" height="140" as="geometry" />
        </mxCell>
        <mxCell id="gu1bRYCdLhk9LEBz2yUO-3" value="&lt;span style=&quot;font-size: 14px;&quot;&gt;Регистрация новых пользователей&lt;/span&gt;" style="ellipse;whiteSpace=wrap;html=1;" parent="1" vertex="1">
          <mxGeometry x="1520" y="1079" width="130" height="90" as="geometry" />
        </mxCell>
        <mxCell id="gu1bRYCdLhk9LEBz2yUO-4" style="edgeStyle=orthogonalEdgeStyle;rounded=0;orthogonalLoop=1;jettySize=auto;html=1;endArrow=none;endFill=0;strokeWidth=3;entryX=1;entryY=0.5;entryDx=0;entryDy=0;" parent="1" source="cGlMTdrQP3n2juW7j6dr-6" target="gu1bRYCdLhk9LEBz2yUO-3" edge="1">
          <mxGeometry relative="1" as="geometry">
            <mxPoint x="1100" y="1283" as="targetPoint" />
            <mxPoint x="830" y="805" as="sourcePoint" />
            <Array as="points">
              <mxPoint x="1670" y="1080" />
              <mxPoint x="1670" y="1124" />
            </Array>
          </mxGeometry>
        </mxCell>
        <mxCell id="gu1bRYCdLhk9LEBz2yUO-5" style="edgeStyle=orthogonalEdgeStyle;rounded=0;orthogonalLoop=1;jettySize=auto;html=1;endArrow=none;endFill=0;strokeWidth=3;entryX=1;entryY=0.5;entryDx=0;entryDy=0;exitX=0;exitY=0.3333333333333333;exitDx=0;exitDy=0;exitPerimeter=0;" parent="1" source="cGlMTdrQP3n2juW7j6dr-6" target="cGlMTdrQP3n2juW7j6dr-34" edge="1">
          <mxGeometry relative="1" as="geometry">
            <mxPoint x="1570" y="1145" as="targetPoint" />
            <mxPoint x="1750" y="1090" as="sourcePoint" />
          </mxGeometry>
        </mxCell>
        <mxCell id="MbFxs7zaVnWWoNZUcA2m-1" value="" style="shape=lineEllipse;perimeter=ellipsePerimeter;whiteSpace=wrap;html=1;backgroundOutline=1;" vertex="1" parent="1">
          <mxGeometry x="1059" y="1150" width="210" height="150" as="geometry" />
        </mxCell>
        <mxCell id="MbFxs7zaVnWWoNZUcA2m-2" value="&lt;div style=&quot;forced-color-adjust: none; color: rgb(0, 0, 0); font-family: Helvetica; font-size: 12px; font-style: normal; font-variant-ligatures: normal; font-variant-caps: normal; font-weight: 400; letter-spacing: normal; orphans: 2; text-indent: 0px; text-transform: none; widows: 2; word-spacing: 0px; -webkit-text-stroke-width: 0px; white-space: normal; background-color: rgb(251, 251, 251); text-decoration-thickness: initial; text-decoration-style: initial; text-decoration-color: initial; text-align: center;&quot;&gt;&lt;span style=&quot;forced-color-adjust: none; background-color: initial; font-size: 14px;&quot;&gt;extension points&lt;/span&gt;&lt;/div&gt;&lt;div style=&quot;forced-color-adjust: none; color: rgb(0, 0, 0); font-family: Helvetica; font-style: normal; font-variant-ligatures: normal; font-variant-caps: normal; font-weight: 400; letter-spacing: normal; orphans: 2; text-indent: 0px; text-transform: none; widows: 2; word-spacing: 0px; -webkit-text-stroke-width: 0px; white-space: normal; background-color: rgb(251, 251, 251); text-decoration-thickness: initial; text-decoration-style: initial; text-decoration-color: initial; text-align: center;&quot;&gt;&lt;span style=&quot;font-size: 14px;&quot;&gt;Введён неверный пароль&lt;/span&gt;&lt;/div&gt;" style="text;whiteSpace=wrap;html=1;" vertex="1" parent="1">
          <mxGeometry x="1103" y="1230" width="130" height="50" as="geometry" />
        </mxCell>
        <mxCell id="v5-8C63rMbfKwI-Q11EX-1" value="&lt;span style=&quot;color: rgb(0, 0, 0); font-family: Helvetica; font-size: 13px; font-style: normal; font-variant-ligatures: normal; font-variant-caps: normal; font-weight: 400; letter-spacing: normal; orphans: 2; text-align: center; text-indent: 0px; text-transform: none; widows: 2; word-spacing: 0px; -webkit-text-stroke-width: 0px; white-space: normal; background-color: rgb(251, 251, 251); text-decoration-thickness: initial; text-decoration-style: initial; text-decoration-color: initial; float: none; display: inline !important;&quot;&gt;Авторизация&lt;/span&gt;" style="text;whiteSpace=wrap;html=1;" vertex="1" parent="1">
          <mxGeometry x="1120" y="1180" width="130" height="40" as="geometry" />
        </mxCell>
        <mxCell id="v5-8C63rMbfKwI-Q11EX-2" style="edgeStyle=orthogonalEdgeStyle;rounded=0;orthogonalLoop=1;jettySize=auto;html=1;endArrow=none;endFill=0;strokeWidth=3;entryX=1;entryY=0.5;entryDx=0;entryDy=0;" edge="1" parent="1" target="MbFxs7zaVnWWoNZUcA2m-1">
          <mxGeometry relative="1" as="geometry">
            <mxPoint x="1570" y="1145" as="targetPoint" />
            <mxPoint x="1750" y="1090" as="sourcePoint" />
            <Array as="points">
              <mxPoint x="1680" y="1091" />
              <mxPoint x="1680" y="1225" />
            </Array>
          </mxGeometry>
        </mxCell>
        <mxCell id="v5-8C63rMbfKwI-Q11EX-3" value="&lt;span style=&quot;color: rgb(51, 51, 51); text-align: start; background-color: rgb(255, 255, 255);&quot;&gt;&lt;font face=&quot;Helvetica&quot; style=&quot;font-size: 14px;&quot;&gt;Просмотр профиля&lt;/font&gt;&lt;/span&gt;" style="ellipse;whiteSpace=wrap;html=1;" vertex="1" parent="1">
          <mxGeometry x="1080" y="1000" width="140" height="70" as="geometry" />
        </mxCell>
        <mxCell id="v5-8C63rMbfKwI-Q11EX-4" style="edgeStyle=orthogonalEdgeStyle;rounded=0;orthogonalLoop=1;jettySize=auto;html=1;endArrow=none;endFill=0;strokeWidth=3;entryX=-0.005;entryY=0.668;entryDx=0;entryDy=0;entryPerimeter=0;" edge="1" parent="1" target="v5-8C63rMbfKwI-Q11EX-3">
          <mxGeometry relative="1" as="geometry">
            <mxPoint x="1069" y="1235" as="targetPoint" />
            <mxPoint x="830" y="830" as="sourcePoint" />
            <Array as="points">
              <mxPoint x="970" y="831" />
              <mxPoint x="970" y="1047" />
            </Array>
          </mxGeometry>
        </mxCell>
        <mxCell id="v5-8C63rMbfKwI-Q11EX-7" value="&lt;br style=&quot;text-align: left; text-indent: 45.3543px;&quot;&gt;&lt;font style=&quot;text-align: left; text-indent: 45.3543px;&quot; face=&quot;Times New Roman, serif&quot;&gt;&lt;font style=&quot;font-size: 14pt;&quot;&gt;Добавление&lt;br&gt;контрольных/лабараторных работы&lt;/font&gt;&lt;/font&gt;" style="ellipse;whiteSpace=wrap;html=1;" vertex="1" parent="1">
          <mxGeometry x="1330" y="755" width="170" height="110" as="geometry" />
        </mxCell>
        <mxCell id="v5-8C63rMbfKwI-Q11EX-8" style="edgeStyle=orthogonalEdgeStyle;rounded=0;orthogonalLoop=1;jettySize=auto;html=1;strokeWidth=3;endArrow=none;endFill=0;" edge="1" parent="1" source="897-IGtDmZMaKjjsDtu9-1">
          <mxGeometry relative="1" as="geometry">
            <mxPoint x="1260" y="1190" as="targetPoint" />
            <Array as="points">
              <mxPoint x="1310" y="640" />
              <mxPoint x="1310" y="1190" />
            </Array>
            <mxPoint x="1520" y="621" as="sourcePoint" />
          </mxGeometry>
        </mxCell>
        <mxCell id="v5-8C63rMbfKwI-Q11EX-9" style="edgeStyle=orthogonalEdgeStyle;rounded=0;orthogonalLoop=1;jettySize=auto;html=1;strokeWidth=3;endArrow=none;endFill=0;entryX=0.5;entryY=0;entryDx=0;entryDy=0;" edge="1" parent="1" target="v5-8C63rMbfKwI-Q11EX-7">
          <mxGeometry relative="1" as="geometry">
            <mxPoint x="1270" y="1200" as="targetPoint" />
            <Array as="points">
              <mxPoint x="1520" y="670" />
              <mxPoint x="1415" y="670" />
            </Array>
            <mxPoint x="1520" y="650" as="sourcePoint" />
          </mxGeometry>
        </mxCell>
        <mxCell id="v5-8C63rMbfKwI-Q11EX-10" value="&lt;br style=&quot;text-align: left; text-indent: 45.3543px;&quot;&gt;&lt;font style=&quot;text-align: left; text-indent: 45.3543px;&quot; face=&quot;Times New Roman, serif&quot;&gt;&lt;font style=&quot;font-size: 14pt;&quot;&gt;Оценка&lt;br&gt;контрольных/лабараторных работы&lt;/font&gt;&lt;/font&gt;" style="ellipse;whiteSpace=wrap;html=1;" vertex="1" parent="1">
          <mxGeometry x="1050" y="770" width="170" height="110" as="geometry" />
        </mxCell>
        <mxCell id="v5-8C63rMbfKwI-Q11EX-11" style="edgeStyle=orthogonalEdgeStyle;rounded=0;orthogonalLoop=1;jettySize=auto;html=1;entryX=0.735;entryY=0.045;entryDx=0;entryDy=0;strokeWidth=3;endArrow=none;endFill=0;entryPerimeter=0;" edge="1" parent="1" target="v5-8C63rMbfKwI-Q11EX-10">
          <mxGeometry relative="1" as="geometry">
            <mxPoint x="1230" y="1045" as="targetPoint" />
            <Array as="points">
              <mxPoint x="1528" y="590" />
              <mxPoint x="1175" y="590" />
            </Array>
            <mxPoint x="1528" y="590" as="sourcePoint" />
          </mxGeometry>
        </mxCell>
        <mxCell id="v5-8C63rMbfKwI-Q11EX-13" value="&lt;br style=&quot;text-align: left; text-indent: 45.3543px;&quot;&gt;&lt;font style=&quot;text-align: left; text-indent: 45.3543px;&quot; face=&quot;Times New Roman, serif&quot;&gt;&lt;font style=&quot;font-size: 14pt;&quot;&gt;Просмотр&lt;br&gt;информации о студентах&lt;/font&gt;&lt;/font&gt;" style="ellipse;whiteSpace=wrap;html=1;" vertex="1" parent="1">
          <mxGeometry x="950" y="520" width="170" height="110" as="geometry" />
        </mxCell>
        <mxCell id="v5-8C63rMbfKwI-Q11EX-14" style="edgeStyle=orthogonalEdgeStyle;rounded=0;orthogonalLoop=1;jettySize=auto;html=1;strokeWidth=3;endArrow=none;endFill=0;entryX=1.002;entryY=0.379;entryDx=0;entryDy=0;entryPerimeter=0;" edge="1" parent="1" target="v5-8C63rMbfKwI-Q11EX-13">
          <mxGeometry relative="1" as="geometry">
            <mxPoint x="1320" y="480" as="targetPoint" />
            <Array as="points">
              <mxPoint x="1170" y="572" />
              <mxPoint x="1170" y="570" />
              <mxPoint x="1120" y="570" />
            </Array>
            <mxPoint x="1523.13" y="571.93" as="sourcePoint" />
          </mxGeometry>
        </mxCell>
        <mxCell id="v5-8C63rMbfKwI-Q11EX-15" style="edgeStyle=orthogonalEdgeStyle;rounded=0;orthogonalLoop=1;jettySize=auto;html=1;entryX=1;entryY=0.3333333333333333;entryDx=0;entryDy=0;entryPerimeter=0;strokeWidth=2;endArrow=block;endFill=0;exitX=0.5;exitY=0;exitDx=0;exitDy=0;exitPerimeter=0;" edge="1" parent="1" source="cGlMTdrQP3n2juW7j6dr-6" target="897-IGtDmZMaKjjsDtu9-1">
          <mxGeometry relative="1" as="geometry">
            <Array as="points">
              <mxPoint x="1775" y="597" />
            </Array>
            <mxPoint x="1720" y="958.47" as="sourcePoint" />
            <mxPoint x="1740" y="661.47" as="targetPoint" />
          </mxGeometry>
        </mxCell>
        <mxCell id="v5-8C63rMbfKwI-Q11EX-16" value="&lt;font style=&quot;font-size: 14px;&quot;&gt;Загрузка кантрольныз/лабораторных работ&lt;/font&gt;" style="ellipse;whiteSpace=wrap;html=1;" vertex="1" parent="1">
          <mxGeometry x="980" y="660" width="170" height="110" as="geometry" />
        </mxCell>
        <mxCell id="v5-8C63rMbfKwI-Q11EX-17" style="edgeStyle=orthogonalEdgeStyle;rounded=0;orthogonalLoop=1;jettySize=auto;html=1;endArrow=none;endFill=0;strokeWidth=3;entryX=0;entryY=0.5;entryDx=0;entryDy=0;exitX=1;exitY=0.3333333333333333;exitDx=0;exitDy=0;exitPerimeter=0;" edge="1" parent="1" source="cGlMTdrQP3n2juW7j6dr-81" target="v5-8C63rMbfKwI-Q11EX-16">
          <mxGeometry relative="1" as="geometry">
            <mxPoint x="1089" y="1057" as="targetPoint" />
            <mxPoint x="840" y="840" as="sourcePoint" />
            <Array as="points">
              <mxPoint x="820" y="770" />
              <mxPoint x="950" y="770" />
              <mxPoint x="950" y="715" />
            </Array>
          </mxGeometry>
        </mxCell>
        <mxCell id="v5-8C63rMbfKwI-Q11EX-19" value="&lt;p style=&quot;line-height: 151%; text-indent: 1.25cm; margin-left: 0.5cm; margin-right: 0.75cm;&quot; class=&quot;western&quot; lang=&quot;ru-RU&quot;&gt;&lt;font style=&quot;font-size: 14px;&quot;&gt;&lt;span style=&quot;text-indent: 47.2441px; letter-spacing: -0.1pt;&quot;&gt;Управление&lt;/span&gt;&lt;span style=&quot;text-indent: 47.2441px; white-space: pre;&quot;&gt;&amp;nbsp;&lt;/span&gt;&lt;span style=&quot;text-indent: 47.2441px; letter-spacing: -0.1pt;&quot;&gt;расписанием&lt;/span&gt;&lt;span style=&quot;text-indent: 47.2441px; white-space: pre;&quot;&gt;&amp;nbsp;&lt;/span&gt;&lt;/font&gt;&lt;/p&gt;&lt;p style=&quot;line-height: 151%; text-indent: 1.25cm; margin-left: 0.5cm; margin-right: 0.75cm;&quot; class=&quot;western&quot; lang=&quot;ru-RU&quot;&gt;&lt;font style=&quot;font-size: 14px;&quot;&gt;&lt;span style=&quot;text-indent: 47.2441px; letter-spacing: -0.1pt;&quot;&gt;контрольных&lt;/span&gt;&lt;span style=&quot;text-indent: 47.2441px; white-space: pre;&quot;&gt;&amp;nbsp;&lt;/span&gt;&lt;span style=&quot;text-indent: 47.2441px; letter-spacing: -0.5pt;&quot;&gt;и&lt;/span&gt;&lt;span style=&quot;text-indent: 47.2441px; white-space: pre;&quot;&gt;&amp;nbsp;&lt;/span&gt;&lt;/font&gt;&lt;/p&gt;&lt;p style=&quot;line-height: 151%; text-indent: 1.25cm; margin-left: 0.5cm; margin-right: 0.75cm;&quot; class=&quot;western&quot; lang=&quot;ru-RU&quot;&gt;&lt;font style=&quot;font-size: 14px;&quot;&gt;&lt;span style=&quot;text-indent: 47.2441px; letter-spacing: -0.1pt;&quot;&gt;лабораторных&lt;/span&gt;&lt;span style=&quot;text-indent: 47.2441px; white-space: pre;&quot;&gt;&amp;nbsp;&lt;/span&gt;&lt;span style=&quot;text-indent: 47.2441px; letter-spacing: -0.1pt;&quot;&gt;работ&lt;/span&gt;&lt;/font&gt;&lt;br&gt;&lt;/p&gt;" style="ellipse;whiteSpace=wrap;html=1;align=center;" vertex="1" parent="1">
          <mxGeometry x="1170" y="430" width="270" height="110" as="geometry" />
        </mxCell>
        <mxCell id="v5-8C63rMbfKwI-Q11EX-20" style="edgeStyle=orthogonalEdgeStyle;rounded=0;orthogonalLoop=1;jettySize=auto;html=1;strokeWidth=3;endArrow=none;endFill=0;entryX=1;entryY=0.5;entryDx=0;entryDy=0;exitX=0.5;exitY=0;exitDx=0;exitDy=0;exitPerimeter=0;" edge="1" parent="1" source="897-IGtDmZMaKjjsDtu9-1" target="v5-8C63rMbfKwI-Q11EX-19">
          <mxGeometry relative="1" as="geometry">
            <mxPoint x="1429.9999999999995" y="380" as="targetPoint" />
            <Array as="points">
              <mxPoint x="1530" y="550" />
              <mxPoint x="1530" y="480" />
              <mxPoint x="1440" y="480" />
            </Array>
            <mxPoint x="1530" y="510" as="sourcePoint" />
          </mxGeometry>
        </mxCell>
        <mxCell id="v5-8C63rMbfKwI-Q11EX-21" value="&lt;span style=&quot;color: rgb(51, 51, 51); text-align: start; background-color: rgb(255, 255, 255);&quot;&gt;&lt;font face=&quot;Helvetica&quot; style=&quot;font-size: 14px;&quot;&gt;Обновление списка работ&lt;/font&gt;&lt;/span&gt;" style="ellipse;whiteSpace=wrap;html=1;" vertex="1" parent="1">
          <mxGeometry x="1500" y="880" width="140" height="70" as="geometry" />
        </mxCell>
        <mxCell id="v5-8C63rMbfKwI-Q11EX-22" value="&lt;span style=&quot;color: rgb(51, 51, 51); text-align: start; background-color: rgb(255, 255, 255);&quot;&gt;&lt;font face=&quot;Helvetica&quot; style=&quot;font-size: 14px;&quot;&gt;Обновление данных&lt;/font&gt;&lt;/span&gt;" style="ellipse;whiteSpace=wrap;html=1;" vertex="1" parent="1">
          <mxGeometry x="990" y="930" width="140" height="70" as="geometry" />
        </mxCell>
        <mxCell id="v5-8C63rMbfKwI-Q11EX-23" value="«include»" style="html=1;verticalAlign=bottom;endArrow=open;dashed=1;endSize=8;curved=0;rounded=0;exitX=1;exitY=1;exitDx=0;exitDy=0;entryX=0;entryY=0;entryDx=0;entryDy=0;" edge="1" parent="1" source="v5-8C63rMbfKwI-Q11EX-7" target="v5-8C63rMbfKwI-Q11EX-21">
          <mxGeometry relative="1" as="geometry">
            <mxPoint x="1500" y="840" as="sourcePoint" />
            <mxPoint x="1458" y="888" as="targetPoint" />
          </mxGeometry>
        </mxCell>
        <mxCell id="v5-8C63rMbfKwI-Q11EX-24" value="&lt;span style=&quot;color: rgb(51, 51, 51); text-align: start; background-color: rgb(255, 255, 255);&quot;&gt;&lt;font face=&quot;Helvetica&quot; style=&quot;font-size: 14px;&quot;&gt;Обновление списка&lt;br&gt;польователей&lt;/font&gt;&lt;/span&gt;" style="ellipse;whiteSpace=wrap;html=1;" vertex="1" parent="1">
          <mxGeometry x="1320" y="1070" width="140" height="70" as="geometry" />
        </mxCell>
        <mxCell id="v5-8C63rMbfKwI-Q11EX-26" value="«include»" style="html=1;verticalAlign=bottom;endArrow=open;dashed=1;endSize=8;curved=0;rounded=0;exitX=0;exitY=0.424;exitDx=0;exitDy=0;entryX=1;entryY=0.5;entryDx=0;entryDy=0;exitPerimeter=0;" edge="1" parent="1" source="gu1bRYCdLhk9LEBz2yUO-3" target="v5-8C63rMbfKwI-Q11EX-24">
          <mxGeometry relative="1" as="geometry">
            <mxPoint x="1440" y="1169" as="sourcePoint" />
            <mxPoint x="1485" y="1210" as="targetPoint" />
          </mxGeometry>
        </mxCell>
      </root>
    </mxGraphModel>
  </diagram>
</mxfile>
